HIERARCHY
ROOT Hips
{
    OFFSET   0.000000   0.000000   0.000000
    CHANNELS 6 Xposition Yposition Zposition Zrotation Xrotation Yrotation
    JOINT Chest
    {
        OFFSET   0.000000   8.007230   0.000000
        CHANNELS 3 Zrotation Xrotation Yrotation
        JOINT Chest2
        {
            OFFSET   0.000000  22.077100   0.000000
            CHANNELS 3 Zrotation Xrotation Yrotation
            JOINT Neck
            {
                OFFSET   0.000000  23.254700   0.000000
                CHANNELS 3 Zrotation Xrotation Yrotation
                JOINT Head
                {
                    OFFSET   0.000010  14.370000   1.956610
                    CHANNELS 3 Zrotation Xrotation Yrotation
                    End Site
                    {
                        OFFSET   0.000000  19.566000   0.000000
                    }
                }
            }
            JOINT LeftCollar
            {
                OFFSET   3.911900  19.017000  -0.467063
                CHANNELS 3 Zrotation Xrotation Yrotation
                JOINT LeftShoulder
                {
                    OFFSET  10.383700   0.000000   0.000000
                    CHANNELS 3 Zrotation Xrotation Yrotation
                    JOINT LeftElbow
                    {
                        OFFSET  26.662100   0.001671   0.000522
                        CHANNELS 3 Zrotation Xrotation Yrotation
                        JOINT LeftWrist
                        {
                            OFFSET  28.869000   0.000037  -0.000114
                            CHANNELS 3 Zrotation Xrotation Yrotation
                            JOINT LeftFinger0
                            {
                                OFFSET   2.044650  -2.323450   3.252850
                                CHANNELS 3 Zrotation Xrotation Yrotation
                                JOINT LeftFinger01
                                {
                                    OFFSET   3.088140   0.000000   0.000000
                                    CHANNELS 3 Zrotation Xrotation Yrotation
                                    JOINT LeftFinger02
                                    {
                                        OFFSET   2.639460   0.000000   0.000000
                                        CHANNELS 3 Zrotation Xrotation Yrotation
                                        End Site
                                        {
                                            OFFSET   2.582190   0.000000   0.000000
                                        }
                                    }
                                }
                            }
                            JOINT LeftFinger1
                            {
                                OFFSET   8.364480   0.000000   3.252850
                                CHANNELS 3 Zrotation Xrotation Yrotation
                                JOINT LeftFinger11
                                {
                                    OFFSET   4.646930   0.000000   0.000000
                                    CHANNELS 3 Zrotation Xrotation Yrotation
                                    JOINT LeftFinger12
                                    {
                                        OFFSET   2.323470   0.000000   0.000000
                                        CHANNELS 3 Zrotation Xrotation Yrotation
                                        End Site
                                        {
                                            OFFSET   2.273050   0.000000   0.000000
                                        }
                                    }
                                }
                            }
                            JOINT LeftFinger2
                            {
                                OFFSET   8.364490   0.000016   1.078090
                                CHANNELS 3 Zrotation Xrotation Yrotation
                                JOINT LeftFinger21
                                {
                                    OFFSET   5.111620   0.000000   0.000000
                                    CHANNELS 3 Zrotation Xrotation Yrotation
                                    JOINT LeftFinger22
                                    {
                                        OFFSET   2.788150   0.000013   0.000000
                                        CHANNELS 3 Zrotation Xrotation Yrotation
                                        End Site
                                        {
                                            OFFSET   2.727660   0.000000   0.000000
                                        }
                                    }
                                }
                            }
                            JOINT LeftFinger3
                            {
                                OFFSET   7.899780   0.000016  -1.078090
                                CHANNELS 3 Zrotation Xrotation Yrotation
                                JOINT LeftFinger31
                                {
                                    OFFSET   4.646930   0.000000   0.000000
                                    CHANNELS 3 Zrotation Xrotation Yrotation
                                    JOINT LeftFinger32
                                    {
                                        OFFSET   2.323470   0.000000   0.000000
                                        CHANNELS 3 Zrotation Xrotation Yrotation
                                        End Site
                                        {
                                            OFFSET   2.273050   0.000000   0.000000
                                        }
                                    }
                                }
                            }
                            JOINT LeftFinger4
                            {
                                OFFSET   7.435080   0.000000  -3.252850
                                CHANNELS 3 Zrotation Xrotation Yrotation
                                JOINT LeftFinger41
                                {
                                    OFFSET   3.717550   0.000000   0.000000
                                    CHANNELS 3 Zrotation Xrotation Yrotation
                                    JOINT LeftFinger42
                                    {
                                        OFFSET   1.858760   0.000000   0.000000
                                        CHANNELS 3 Zrotation Xrotation Yrotation
                                        End Site
                                        {
                                            OFFSET   1.818440   0.000000   0.000000
                                        }
                                    }
                                }
                            }
                        }
                    }
                }
            }
            JOINT RightCollar
            {
                OFFSET  -3.911900  19.017000  -0.467064
                CHANNELS 3 Zrotation Xrotation Yrotation
                JOINT RightShoulder
                {
                    OFFSET -10.383700   0.000000   0.000000
                    CHANNELS 3 Zrotation Xrotation Yrotation
                    JOINT RightElbow
                    {
                        OFFSET -26.662100   0.001633   0.000260
                        CHANNELS 3 Zrotation Xrotation Yrotation
                        JOINT RightWrist
                        {
                            OFFSET -28.869000  -0.000045  -0.000080
                            CHANNELS 3 Zrotation Xrotation Yrotation
                            JOINT RightFinger0
                            {
                                OFFSET  -2.044660  -2.323490   3.252850
                                CHANNELS 3 Zrotation Xrotation Yrotation
                                JOINT RightFinger01
                                {
                                    OFFSET  -3.088140   0.000000   0.000000
                                    CHANNELS 3 Zrotation Xrotation Yrotation
                                    JOINT RightFinger02
                                    {
                                        OFFSET  -2.639450   0.000000   0.000000
                                        CHANNELS 3 Zrotation Xrotation Yrotation
                                        End Site
                                        {
                                            OFFSET  -2.582190   0.000000   0.000000
                                        }
                                    }
                                }
                            }
                            JOINT RightFinger1
                            {
                                OFFSET  -8.364480   0.000000   3.252850
                                CHANNELS 3 Zrotation Xrotation Yrotation
                                JOINT RightFinger11
                                {
                                    OFFSET  -4.646920   0.000000   0.000000
                                    CHANNELS 3 Zrotation Xrotation Yrotation
                                    JOINT RightFinger12
                                    {
                                        OFFSET  -2.323470   0.000000   0.000000
                                        CHANNELS 3 Zrotation Xrotation Yrotation
                                        End Site
                                        {
                                            OFFSET  -2.273050   0.000000   0.000000
                                        }
                                    }
                                }
                            }
                            JOINT RightFinger2
                            {
                                OFFSET  -8.364480   0.000000   1.078090
                                CHANNELS 3 Zrotation Xrotation Yrotation
                                JOINT RightFinger21
                                {
                                    OFFSET  -5.111610   0.000000   0.000000
                                    CHANNELS 3 Zrotation Xrotation Yrotation
                                    JOINT RightFinger22
                                    {
                                        OFFSET  -2.788160   0.000000   0.000000
                                        CHANNELS 3 Zrotation Xrotation Yrotation
                                        End Site
                                        {
                                            OFFSET  -2.727660   0.000000   0.000000
                                        }
                                    }
                                }
                            }
                            JOINT RightFinger3
                            {
                                OFFSET  -7.899780   0.000000  -1.078090
                                CHANNELS 3 Zrotation Xrotation Yrotation
                                JOINT RightFinger31
                                {
                                    OFFSET  -4.646930   0.000000   0.000000
                                    CHANNELS 3 Zrotation Xrotation Yrotation
                                    JOINT RightFinger32
                                    {
                                        OFFSET  -2.323470   0.000000   0.000000
                                        CHANNELS 3 Zrotation Xrotation Yrotation
                                        End Site
                                        {
                                            OFFSET  -2.273050   0.000000   0.000000
                                        }
                                    }
                                }
                            }
                            JOINT RightFinger4
                            {
                                OFFSET  -7.435090   0.000000  -3.252850
                                CHANNELS 3 Zrotation Xrotation Yrotation
                                JOINT RightFinger41
                                {
                                    OFFSET  -3.717550   0.000000   0.000000
                                    CHANNELS 3 Zrotation Xrotation Yrotation
                                    JOINT RightFinger42
                                    {
                                        OFFSET  -1.858760   0.000000   0.000000
                                        CHANNELS 3 Zrotation Xrotation Yrotation
                                        End Site
                                        {
                                            OFFSET  -1.818440   0.000000   0.000000
                                        }
                                    }
                                }
                            }
                        }
                    }
                }
            }
        }
    }
    JOINT LeftHip
    {
        OFFSET   9.782990   0.000000   0.000000
        CHANNELS 3 Zrotation Xrotation Yrotation
        JOINT LeftKnee
        {
            OFFSET  -0.000063 -41.789100   0.001657
            CHANNELS 3 Zrotation Xrotation Yrotation
            JOINT LeftAnkle
            {
                OFFSET   0.000078 -41.133200  -0.000113
                CHANNELS 3 Zrotation Xrotation Yrotation
                JOINT LeftToe
                {
                    OFFSET   0.000000  -6.358970  14.674500
                    CHANNELS 3 Zrotation Xrotation Yrotation
                    End Site
                    {
                        OFFSET   0.000000   0.000000   3.913200
                    }
                }
            }
        }
    }
    JOINT RightHip
    {
        OFFSET  -9.782990   0.000000   0.000000
        CHANNELS 3 Zrotation Xrotation Yrotation
        JOINT RightKnee
        {
            OFFSET   0.000053 -41.789200   0.000277
            CHANNELS 3 Zrotation Xrotation Yrotation
            JOINT RightAnkle
            {
                OFFSET   0.000030 -41.133200  -0.000150
                CHANNELS 3 Zrotation Xrotation Yrotation
                JOINT RightToe
                {
                    OFFSET   0.000000  -6.358960  14.674500
                    CHANNELS 3 Zrotation Xrotation Yrotation
                    End Site
                    {
                        OFFSET   0.000000   0.000000   3.913200
                    }
                }
            }
        }
    }
}
MOTION
Frames: 6
Frame Time:   0.016667
 -0.532923  89.556600  -1.485950  -2.826830 -17.508000   0.186641   2.759580  10.142900  -0.606587   5.768950  20.242800  -1.760200   3.807840  -5.373800   0.357331   6.412160 -10.752400  21.028100  -4.904420  -3.970210  -0.373130 -47.570300   3.842450 -66.253000  35.470400 -17.866000 -72.902300  54.328700  23.113800 -31.199500  59.037300  54.333300 -108.293000  15.695000  -0.000352   0.000244  12.847500   0.000614  -0.000337 -20.700700   0.539196  -1.415320 -16.939800  -0.003767  -0.000959 -11.857900  -0.003594  -0.001984 -74.118300  -0.171072   0.048204 -74.118500   0.002834   0.000344 -55.588800   0.001952   0.000484 -73.292800  -4.999870   1.498480 -73.358200   0.003533  -0.001662 -55.018600   0.002667   0.001329 -72.594300  -9.550510   2.977060 -109.264000  -0.000266   0.004472 -72.770100   0.000337  -0.002348  12.965000  -1.825430  11.506200  65.695400  12.092900  -1.402510  -2.289030  -9.902340  13.354300 -33.593700  -8.514100   3.762230 -36.008100  24.740200  57.459100  30.542300  -0.004603  -0.002363  10.271200  -0.002380  -0.000815  43.749500   5.560510   5.780240  36.034700   0.003581  -0.003035  26.032800   0.001960  -0.001901  28.542600   3.851870   7.034920  41.214600  -0.002089  -0.003992  27.448900   0.002963  -0.004126  31.324600  -4.960860  -8.086380  47.515400   0.001719  -0.004486  31.643900   0.002276  -0.001417  41.106100  -6.264140  -7.127390  62.247900   0.003688  -0.003834  41.457000   0.002129  -0.001469   3.245180  18.503500   4.763390   1.419410   0.106300   6.148790  -1.439700  -2.129550   0.922648   0.000000   0.000000  -0.000000   6.008370  17.052700   2.812370  -1.785380   4.787520  -8.732400  -0.850228  -5.771900  -3.174090   0.000000   0.000000   0.000000
 -0.530008  89.556900  -1.466480  -2.819450 -17.491700   0.205670   2.763420  10.132800  -0.605653   5.776170  20.222700  -1.758290   3.832250  -5.365560   0.358888   6.449710 -10.734200  21.134300  -4.929920  -3.970000  -0.398372 -47.665600   3.956300 -66.288900  35.798700 -17.856300 -72.866100  55.409500  23.347700 -31.709700  59.037400  54.333300 -108.293000  15.695000  -0.000415   0.000290  12.847500   0.000620  -0.000389 -20.614700   0.436437  -1.154000 -16.868800  -0.003765  -0.000891 -11.808200  -0.003601  -0.001966 -74.108200  -0.174412   0.048672 -74.108500   0.002886   0.000359 -55.581400   0.001960   0.000527 -73.200300  -5.008750   1.509610 -73.266400   0.003568  -0.001626 -54.949800   0.002672   0.001377 -72.568200  -9.549010   2.980650 -109.226000  -0.000287   0.004545 -72.744300   0.000304  -0.002316  12.974000  -1.825870  11.513600  65.691500  12.121600  -1.403480  -2.280000  -9.940000  13.324000 -33.626000  -8.527930   3.773900 -36.006700  24.724400  57.453300  30.532300  -0.004616  -0.002413  10.266200  -0.002391  -0.000825  43.752800   5.563900   5.782670  36.034200   0.003580  -0.003016  26.032300   0.001968  -0.001862  28.542700   3.855390   7.038350  41.316600  -0.002172  -0.004038  27.516800   0.003054  -0.004145  31.333300  -4.947500  -8.062820  47.523300   0.001640  -0.004486  31.650600   0.002213  -0.001360  41.115900  -6.247070  -7.106320  62.256300   0.003595  -0.003833  41.462700   0.002077  -0.001442   3.239080  18.521300   4.763240   1.417930   0.053019   6.147070  -1.438360  -2.118940   0.913698  -0.000000   0.000000   0.000000   5.999180  17.063100   2.812660  -1.777690   4.762830  -8.746330  -0.850346  -5.773020  -3.173810  -0.000000   0.000000  -0.000000
 -0.523835  89.557200  -1.447260  -2.811160 -17.478700   0.226832   2.768790  10.121400  -0.608911   5.787200  20.199600  -1.765140   3.848700  -5.356700   0.359422   6.471160 -10.714600  21.260800  -4.954830  -3.954060  -0.419717 -47.801300   4.094150 -66.306200  36.143300 -17.867000 -72.828600  56.481700  23.532000 -32.354100  59.037500  54.333300 -108.293000  15.695000  -0.000489   0.000255  12.847500   0.000621  -0.000444 -20.591500   0.410481  -1.085650 -16.847900  -0.003750  -0.000827 -11.793500  -0.003603  -0.001945 -74.170800  -0.121056   0.033677 -74.171100   0.002942   0.000356 -55.628400   0.001966   0.000580 -73.196500  -5.009030   1.510040 -73.262700   0.003600  -0.001599 -54.947100   0.002681   0.001416 -72.583900  -9.547560   2.978750 -109.249000  -0.000305   0.004632 -72.759700   0.000272  -0.002295  12.983100  -1.820780  11.518800  65.682600  12.156600  -1.406240  -2.281030  -9.971440  13.297900 -33.651800  -8.553820   3.791970 -36.003600  24.709800  57.445100  30.525800  -0.004627  -0.002454  10.262900  -0.002394  -0.000829  43.756900   5.566780   5.784710  36.034300   0.003582  -0.003003  26.032300   0.001974  -0.001825  28.546000   3.855500   7.041150  41.471800  -0.002272  -0.004086  27.620200   0.003149  -0.004164  31.340400  -4.937110  -8.043720  47.531800   0.001564  -0.004485  31.656400   0.002149  -0.001306  41.123900  -6.233700  -7.089120  62.266000   0.003502  -0.003833  41.469100   0.002025  -0.001416   3.235970  18.536100   4.771090   1.414400   0.019172   6.134780  -1.437700  -2.114000   0.902122   0.000000   0.000000  -0.000000   5.987080  17.070000   2.817410  -1.768320   4.748640  -8.755660  -0.851787  -5.778190  -3.185760  -0.000000   0.000000  -0.000000
 -0.516557  89.557600  -1.428540  -2.802020 -17.471300   0.250031   2.775030  10.111100  -0.617925   5.801310  20.178400  -1.784180   3.860470  -5.347910   0.359591   6.496340 -10.696500  21.410200  -4.979950  -3.928760  -0.430463 -47.955200   4.244550 -66.319000  36.501100 -17.882500 -72.766500  57.538800  23.663700 -33.075900  59.037500  54.333300 -108.293000  15.695000  -0.000569   0.000219  12.847500   0.000622  -0.000499 -20.589000   0.384121  -1.012500 -16.844900  -0.003737  -0.000759 -11.791400  -0.003606  -0.001926 -74.284600  -0.067700   0.018681 -74.284700   0.002999   0.000352 -55.713600   0.001969   0.000633 -73.196000  -5.009070   1.510110 -73.262200   0.003631  -0.001574 -54.946700   0.002688   0.001453 -72.599500  -9.546150   2.976860 -109.272000  -0.000318   0.004720 -72.775100   0.000240  -0.002276  12.991800  -1.809970  11.526900  65.669300  12.178800  -1.408040  -2.286710  -9.998020  13.284600 -33.671500  -8.580320   3.816460 -36.004700  24.698700  57.437500  30.518200  -0.004638  -0.002494  10.259100  -0.002396  -0.000834  43.760000   5.569640   5.786910  36.034300   0.003584  -0.002990  26.032400   0.001980  -0.001790  28.550500   3.855490   7.044020  41.681700  -0.002331  -0.004135  27.760000   0.003244  -0.004183  31.345400  -4.927850  -8.027540  47.537000   0.001489  -0.004485  31.659700   0.002086  -0.001254  41.129500  -6.221860  -7.074680  62.271900   0.003410  -0.003834  41.473000   0.001972  -0.001393   3.233120  18.544300   4.779760   1.411870   0.002750   6.118410  -1.437680  -2.112180   0.888465   0.000000   0.000000   0.000000   5.977770  17.076200   2.826950  -1.762070   4.743390  -8.766820  -0.854132  -5.787680  -3.205410  -0.000000   0.000000   0.000000
 -0.510139  89.557900  -1.410600  -2.793350 -17.469700   0.272719   2.781640  10.104000  -0.633101   5.817740  20.163200  -1.816020   3.868140  -5.339790   0.359921   6.512080 -10.681400  21.589600  -5.004750  -3.909880  -0.426439 -48.098900   4.413310 -66.330600  36.915200 -17.890300 -72.617400  58.670500  23.714700 -33.951500  59.037600  54.333300 -108.293000  15.695000  -0.000647   0.000288  12.847500   0.000628  -0.000553 -20.630700   0.231232  -0.605213 -16.876900  -0.003736  -0.000695 -11.813800  -0.003614  -0.001915 -74.426700  -0.126706   0.035466 -74.426200   0.003058   0.000356 -55.819700   0.001964   0.000677 -73.227900  -5.006900   1.506450 -73.293800   0.003659  -0.001542 -54.970400   0.002683   0.001490 -72.571700  -9.544780   2.981490 -109.231000  -0.000324   0.004805 -72.747700   0.000208  -0.002256  13.001500  -1.795420  11.544200  65.648900  12.174700  -1.400990  -2.296500 -10.015800  13.287900 -33.681000  -8.592750   3.850910 -36.015000  24.698300  57.427000  30.504000  -0.004650  -0.002535  10.251900  -0.002400  -0.000840  43.760200   5.572910   5.790460  36.034500   0.003578  -0.002973  26.032600   0.001988  -0.001758  28.553300   3.855040   7.047980  41.950500  -0.001591  -0.004184  27.939100   0.003335  -0.004202  31.340100  -4.917080  -8.012180  47.526300   0.001415  -0.004486  31.652600   0.002026  -0.001202  41.123200  -6.208780  -7.061660  62.259400   0.003319  -0.003833  41.464700   0.001917  -0.001372   3.233120  18.534700   4.780650   1.410510   0.031169   6.109210  -1.439860  -2.131800   0.873503  -0.000000   0.000000  -0.000000   5.975380  17.083000   2.839860  -1.760110   4.748740  -8.787170  -0.856248  -5.800190  -3.220880   0.000000   0.000000   0.000000
 -0.504019  89.558200  -1.393970  -2.783640 -17.469100   0.295208   2.787880  10.098300  -0.651609   5.833350  20.150700  -1.854710   3.875580  -5.332440   0.360233   6.522110 -10.667000  21.784100  -5.031530  -3.892590  -0.420144 -48.239500   4.576590 -66.335400  37.301100 -17.898800 -72.452300  59.728700  23.735900 -34.786300  59.037700  54.333300 -108.293000  15.695000  -0.000727   0.000356  12.847500   0.000634  -0.000605 -20.670500   0.023383  -0.052297 -16.908900  -0.003736  -0.000628 -11.836200  -0.003623  -0.001903 -74.517400  -0.299653   0.083949 -74.516700   0.003114   0.000362 -55.887500   0.001957   0.000720 -73.259800  -5.004740   1.502800 -73.325400   0.003687  -0.001509 -54.994100   0.002676   0.001526 -72.518200  -9.543480   2.990360 -109.152000  -0.000335   0.004887 -72.695000   0.000175  -0.002236  13.010800  -1.779950  11.563800  65.626500  12.163300  -1.387250  -2.311900 -10.022900  13.300700 -33.685300  -8.604050   3.883800 -36.028200  24.705500  57.412700  30.489500  -0.004660  -0.002576  10.244700  -0.002404  -0.000849  43.760100   5.574820   5.792760  36.034900   0.003572  -0.002956  26.033000   0.001996  -0.001728  28.556300   3.854440   7.050430  42.260200  -0.000537  -0.004231  28.145300   0.003426  -0.004222  31.329200  -4.910130  -8.004150  47.509400   0.001343  -0.004487  31.641300   0.001966  -0.001151  41.109600  -6.199980  -7.055030  62.238300   0.003229  -0.003833  41.450700   0.001861  -0.001352   3.231070  18.518600   4.780360   1.408550   0.076975   6.102640  -1.442950  -2.163260   0.858724  -0.000000   0.000000  -0.000000   5.973040  17.089000   2.852670  -1.758950   4.758780  -8.809000  -0.858001  -5.815140  -3.235470  -0.000000   0.000000   0.000000
